<svg width="586" height="139" viewBox="0 0 586 139" fill="none" xmlns="http://www.w3.org/2000/svg">
<path fill-rule="evenodd" clip-rule="evenodd" d="M119.032 80.7972C119.032 96.3921 106.242 109.032 90.4622 109.032H61.5272C56.9631 102.951 54.3551 95.6269 54.0492 88.03C53.7432 80.4331 55.7537 72.9227 59.8141 66.4946C63.8744 60.0665 69.7927 55.0244 76.7843 52.037C83.7759 49.0496 91.5104 48.258 98.9622 49.7672C99.3572 51.1722 99.6422 52.6222 99.8122 54.1072C110.992 57.9322 119.032 68.4372 119.032 80.7972Z" fill="#3AB2F1"/>
<path d="M71.4122 29.0322C55.6322 29.0322 42.8422 41.6722 42.8422 57.2672C42.8422 60.7172 43.4672 64.0172 44.6122 67.0772C43.2449 66.8113 41.8552 66.6774 40.4622 66.6772C28.6272 66.6822 19.0322 76.1622 19.0322 87.8572C19.0322 99.5522 28.6272 109.032 40.4622 109.032H61.5272C56.9631 102.951 54.3552 95.627 54.0492 88.0301C53.7433 80.4332 55.7538 72.9227 59.8141 66.4946C63.8744 60.0666 69.7928 55.0245 76.7844 52.0371C83.7759 49.0497 91.5104 48.2581 98.9622 49.7672C98.8897 49.5027 98.813 49.2393 98.7322 48.9772C95.1522 37.4322 84.2722 29.0322 71.4122 29.0322Z" fill="#1890D1"/>
<path d="M177.185 97.5202C172.651 102.665 167.554 105.238 161.894 105.238C150.349 105.238 144.577 98.9351 144.577 86.3291V52.8523H153.693V85.9432C153.693 90.1238 154.433 93.1306 155.912 94.9636C157.392 96.7966 159.836 97.7131 163.244 97.7131C168.325 97.7131 172.972 94.9797 177.185 89.5127V52.8523H186.254V104.032H177.185V97.5202ZM218.042 105.238C204.053 105.238 196.737 99.7391 196.094 88.741H205.211C205.275 94.9797 209.52 98.099 217.946 98.099C221.708 98.099 224.57 97.3272 226.532 95.7836C228.526 94.2079 229.523 92.2462 229.523 89.8986C229.523 87.5833 228.558 85.9593 226.628 85.0267C224.699 84.0619 220.711 82.8238 214.666 81.3124C208.652 79.8009 204.246 78.1126 201.448 76.2474C198.683 74.3823 197.3 71.1021 197.3 66.407C197.3 62.1621 199.021 58.6569 202.461 55.8912C205.935 53.0935 210.565 51.6946 216.354 51.6946C229.764 51.6946 236.614 56.4701 236.903 66.0211H227.834C227.513 61.1974 223.895 58.7855 216.981 58.7855C213.926 58.7855 211.385 59.3643 209.359 60.522C207.366 61.6797 206.369 63.368 206.369 65.587C206.369 67.5808 207.141 69.0279 208.684 69.9283C210.228 70.7966 214.087 71.9865 220.261 73.4979C226.468 74.9772 231.066 76.7137 234.057 78.7076C237.08 80.7014 238.591 84.1423 238.591 89.0304C238.591 93.6933 236.726 97.5684 232.996 100.656C229.298 103.711 224.313 105.238 218.042 105.238ZM281.571 97.5202C277.037 102.665 271.94 105.238 266.28 105.238C254.735 105.238 248.962 98.9351 248.962 86.3291V52.8523H258.079V85.9432C258.079 90.1238 258.819 93.1306 260.298 94.9636C261.777 96.7966 264.222 97.7131 267.63 97.7131C272.711 97.7131 277.358 94.9797 281.571 89.5127V52.8523H290.64V104.032H281.571V97.5202ZM314.807 59.9914V104.032H305.738V59.9914H298.213V52.8523H305.738V48.318C305.738 37.5128 310.513 32.1102 320.064 32.1102C322.991 32.1102 325.258 32.3031 326.866 32.689V40.6C325.065 40.2784 323.232 40.1176 321.367 40.1176C319.148 40.1176 317.492 40.7447 316.398 41.9988C315.337 43.2209 314.807 45.3594 314.807 48.4144V52.8523H324.502V59.9914H314.807ZM364.057 89.3198V65.0081C360.134 60.8597 355.648 58.7855 350.599 58.7855C346.708 58.7855 343.588 60.4738 341.241 63.8504C338.925 67.1949 337.768 72.1955 337.768 78.8523C337.768 85.1553 338.861 89.9469 341.048 93.227C343.267 96.475 346.322 98.099 350.213 98.099C355.294 98.099 359.909 95.1726 364.057 89.3198ZM364.057 97.9061C360.005 102.794 355.133 105.238 349.441 105.238C342.752 105.238 337.575 102.858 333.909 98.099C330.243 93.3396 328.409 86.924 328.409 78.8523C328.409 70.4911 330.452 63.8826 334.536 59.0267C338.652 54.1386 343.813 51.6946 350.02 51.6946C355.551 51.6946 360.23 53.399 364.057 56.8077V33.3161H373.126V104.032H364.057V97.9061ZM408.387 105.238C400.862 105.238 394.816 102.891 390.25 98.1955C385.683 93.4682 383.4 86.8918 383.4 78.4664C383.4 70.1052 385.603 63.561 390.009 58.8337C394.447 54.0743 400.235 51.6946 407.374 51.6946C414.674 51.6946 420.495 54.0261 424.836 58.689C429.21 63.352 431.396 69.9444 431.396 78.4664V80.6371H392.855C393.241 86.5542 394.865 90.9438 397.727 93.8059C400.621 96.668 404.174 98.099 408.387 98.099C411.571 98.099 414.433 97.2951 416.973 95.6871C419.546 94.0471 420.897 91.7317 421.025 88.741H430.432C429.724 94.0149 427.328 98.0829 423.244 100.945C419.192 103.807 414.24 105.238 408.387 105.238ZM421.797 73.4979C421.058 68.5777 419.401 64.8956 416.829 62.4515C414.256 60.0075 411.105 58.7855 407.374 58.7855C403.74 58.7855 400.621 60.0075 398.016 62.4515C395.411 64.8634 393.755 68.5455 393.048 73.4979H421.797ZM483.011 52.8523L463.667 104.032H455.563L436.22 52.8523H446.061L459.615 92.8894L473.17 52.8523H483.011ZM492.25 104.032H488.045V99.8281H492.25V104.032ZM507.671 104.545C504.582 104.545 502.107 103.554 500.248 101.571C498.402 99.5752 497.479 96.7725 497.479 93.1631C497.479 89.54 498.402 86.7373 500.248 84.7549C502.107 82.7725 504.582 81.7812 507.671 81.7812C510.05 81.7812 512.033 82.3828 513.619 83.5859C515.218 84.7891 516.162 86.5254 516.449 88.7949H512.47C512.416 87.4961 511.923 86.5049 510.994 85.8213C510.078 85.1377 508.97 84.7959 507.671 84.7959C505.826 84.7959 504.329 85.5 503.18 86.9082C502.032 88.3027 501.458 90.3877 501.458 93.1631C501.458 95.9248 502.032 98.0098 503.18 99.418C504.329 100.812 505.826 101.51 507.671 101.51C508.97 101.51 510.078 101.168 510.994 100.484C511.923 99.8008 512.416 98.8164 512.47 97.5312H516.449C516.162 99.8008 515.218 101.537 513.619 102.74C512.033 103.943 510.05 104.545 507.671 104.545ZM528.671 81.7812C531.775 81.7812 534.25 82.7725 536.095 84.7549C537.955 86.7373 538.884 89.54 538.884 93.1631C538.884 96.7725 537.955 99.5752 536.095 101.571C534.25 103.554 531.775 104.545 528.671 104.545C525.582 104.545 523.107 103.554 521.248 101.571C519.402 99.5752 518.479 96.7725 518.479 93.1631C518.479 89.54 519.402 86.7373 521.248 84.7549C523.107 82.7725 525.582 81.7812 528.671 81.7812ZM528.671 101.51C530.517 101.51 532.014 100.812 533.163 99.418C534.311 98.0098 534.885 95.9248 534.885 93.1631C534.885 90.3877 534.311 88.3027 533.163 86.9082C532.014 85.5 530.517 84.7959 528.671 84.7959C526.826 84.7959 525.329 85.5 524.18 86.9082C523.032 88.3027 522.458 90.3877 522.458 93.1631C522.458 95.9248 523.032 98.0098 524.18 99.418C525.329 100.812 526.826 101.51 528.671 101.51ZM572.64 104.032H568.764V89.9639C568.764 88.1592 568.504 86.874 567.985 86.1084C567.465 85.3428 566.597 84.96 565.38 84.96C563.507 84.96 561.668 86.1221 559.864 88.4463V104.032H556.008V89.9639C556.008 88.1592 555.749 86.874 555.229 86.1084C554.709 85.3428 553.834 84.96 552.604 84.96C550.731 84.96 548.899 86.1221 547.108 88.4463V104.032H543.232V82.2734H547.108V85.042C548.94 82.8682 550.97 81.7812 553.199 81.7812C556.384 81.7812 558.415 83.0938 559.29 85.7188C560.739 84.0098 561.969 82.9297 562.981 82.4785C563.993 82.0137 564.984 81.7812 565.955 81.7812C570.412 81.7812 572.64 84.4541 572.64 89.7998V104.032Z" fill="black"/>
</svg>
