<svg width="1920" height="1080" viewBox="0 0 1920 1080" fill="none" xmlns="http://www.w3.org/2000/svg">
<path d="M1136 368H784C776.574 368 769.452 370.95 764.201 376.201C758.95 381.452 756 388.574 756 396V684C756 691.426 758.95 698.548 764.201 703.799C769.452 709.05 776.574 712 784 712H1136C1143.43 712 1150.55 709.05 1155.8 703.799C1161.05 698.548 1164 691.426 1164 684V396C1164 388.574 1161.05 381.452 1155.8 376.201C1150.55 370.95 1143.43 368 1136 368ZM784 392H1136C1137.06 392 1138.08 392.421 1138.83 393.172C1139.58 393.922 1140 394.939 1140 396V611.14L1081.06 552.2C1078.46 549.6 1075.37 547.537 1071.98 546.13C1068.58 544.722 1064.94 543.998 1061.26 543.998C1057.58 543.998 1053.94 544.722 1050.54 546.13C1047.15 547.537 1044.06 549.6 1041.46 552.2L998.62 595.04L907.8 504.2C905.2 501.6 902.113 499.537 898.716 498.13C895.318 496.722 891.677 495.998 888 495.998C884.323 495.998 880.682 496.722 877.284 498.13C873.887 499.537 870.8 501.6 868.2 504.2L780 592.4V396C780 394.939 780.421 393.922 781.172 393.172C781.922 392.421 782.939 392 784 392ZM780 684V626.34L885.16 521.18C885.532 520.805 885.974 520.508 886.462 520.304C886.949 520.101 887.472 519.997 888 519.997C888.528 519.997 889.051 520.101 889.538 520.304C890.026 520.508 890.468 520.805 890.84 521.18L1057.66 688H784C782.939 688 781.922 687.579 781.172 686.828C780.421 686.078 780 685.061 780 684ZM1136 688H1091.6L1015.6 612L1058.42 569.16C1058.79 568.788 1059.23 568.493 1059.72 568.292C1060.2 568.09 1060.72 567.987 1061.25 567.987C1061.78 567.987 1062.3 568.09 1062.78 568.292C1063.27 568.493 1063.71 568.788 1064.08 569.16L1140.08 645.16V684C1140.08 684.532 1139.97 685.059 1139.77 685.549C1139.56 686.04 1139.26 686.485 1138.88 686.857C1138.5 687.23 1138.05 687.523 1137.56 687.719C1137.06 687.915 1136.53 688.011 1136 688ZM996 484C996 480.044 997.173 476.178 999.371 472.889C1001.57 469.6 1004.69 467.036 1008.35 465.522C1012 464.009 1016.02 463.613 1019.9 464.384C1023.78 465.156 1027.35 467.061 1030.14 469.858C1032.94 472.655 1034.84 476.219 1035.62 480.098C1036.39 483.978 1035.99 487.999 1034.48 491.654C1032.96 495.308 1030.4 498.432 1027.11 500.629C1023.82 502.827 1019.96 504 1016 504C1010.7 504 1005.61 501.893 1001.86 498.142C998.107 494.391 996 489.304 996 484Z" fill="black"/>
</svg>
